<?xml version="1.0" encoding="iso-8859-1"?>
<!-- Uploaded to: SVG Repo, www.svgrepo.com, Generator: SVG Repo Mixer Tools -->
<svg version="1.1" id="Layer_1" xmlns="http://www.w3.org/2000/svg" xmlns:xlink="http://www.w3.org/1999/xlink" 
	 viewBox="0 0 512 512" xml:space="preserve">
<rect x="222.241" y="5.814" style="fill:#48BDD2;" width="67.516" height="92.644"/>
<path style="fill:#0273cc;" d="M323.21,152.586l-7.764-54.351c-1.75-12.253-13.31-22.279-25.688-22.279h-8.375h-6.253h-10.626
	h-16.879l-8.128-0.188l-8.75,0.188h-8.505c-12.378,0-23.938,10.026-25.688,22.279l-7.764,54.351
	c-40.53,23.303-67.821,67.037-67.821,117.144c0,74.576,60.457,135.033,135.033,135.033s135.033-60.457,135.033-135.033
	C391.032,219.623,363.74,175.891,323.21,152.586z"/>
<path d="M255.999,413.203c-79.111,0-143.473-64.361-143.473-143.473c0-49.827,26.132-96.317,68.477-122.333l7.194-50.355
	c2.325-16.28,17.597-29.526,34.043-29.526h67.516c16.446,0,31.717,13.246,34.043,29.525l7.194,50.355
	c42.345,26.016,68.477,72.507,68.477,122.334C399.472,348.841,335.111,413.203,255.999,413.203z M222.241,84.396
	c-8.231,0-16.17,6.884-17.334,15.033l-7.764,54.351c-0.368,2.57-1.897,4.829-4.148,6.123
	c-39.224,22.553-63.589,64.636-63.589,109.828c0,69.804,56.789,126.593,126.593,126.593s126.593-56.789,126.593-126.592
	c0-45.191-24.366-87.275-63.589-109.828c-2.252-1.294-3.781-3.552-4.149-6.123l-7.764-54.351
	c-1.162-8.149-9.101-15.034-17.333-15.034H222.241z"/>
<path d="M302.602,50.637h-93.204c-4.661,0-8.44-3.779-8.44-8.44s3.779-8.44,8.44-8.44h93.204c4.661,0,8.44,3.779,8.44,8.44
	S307.262,50.637,302.602,50.637z"/>
<path d="M302.602,16.879h-93.204c-4.661,0-8.44-3.779-8.44-8.44S204.736,0,209.397,0h93.204c4.661,0,8.44,3.779,8.44,8.44
	S307.262,16.879,302.602,16.879z"/>
<path d="M302.451,252.004c-2.145,0.001-4.264-0.817-5.876-2.379l-17.348-16.814l-17.351,16.814c-3.272,3.172-8.473,3.172-11.746,0
	l-17.354-16.815l-17.353,16.815c-2.592,2.51-6.493,3.096-9.707,1.458c-3.215-1.64-5.031-5.14-4.521-8.712l19.122-133.851
	c0.659-4.614,4.932-7.821,9.548-7.161c4.615,0.659,7.821,4.934,7.161,9.548l-15.633,109.43l5.509-5.339
	c3.273-3.171,8.472-3.171,11.746,0l17.353,16.815l17.351-16.814c3.272-3.172,8.473-3.172,11.747,0l5.505,5.335l-15.504-108.525
	c-0.659-4.615,2.548-8.889,7.161-9.548c4.61-0.659,8.889,2.548,9.548,7.161l18.992,132.95c0.51,3.572-1.308,7.073-4.521,8.712
	C305.067,251.703,303.754,252.004,302.451,252.004z"/>
<path d="M255.999,512c-4.661,0-8.44-3.779-8.44-8.44v-65.039c0-4.661,3.779-8.44,8.44-8.44c4.661,0,8.44,3.779,8.44,8.44v65.039
	C264.439,508.221,260.66,512,255.999,512z"/>
<path d="M393.448,467.344c-2.609,0-5.184-1.206-6.835-3.479l-38.229-52.618c-2.74-3.771-1.903-9.048,1.868-11.788
	c3.772-2.739,9.049-1.902,11.788,1.868l38.229,52.618c2.74,3.771,1.903,9.048-1.868,11.788
	C396.904,466.819,395.168,467.344,393.448,467.344z"/>
<path d="M478.386,350.43c-0.864,0-1.743-0.134-2.609-0.415l-61.855-20.099c-4.432-1.44-6.859-6.201-5.418-10.635
	c1.44-4.432,6.198-6.861,10.635-5.418l61.855,20.099c4.432,1.44,6.859,6.201,5.418,10.635
	C485.253,348.162,481.944,350.43,478.386,350.43z"/>
<path d="M416.528,226.013c-3.558,0-6.866-2.267-8.024-5.833c-1.44-4.434,0.986-9.195,5.418-10.635l61.855-20.099
	c4.431-1.443,9.195,0.985,10.635,5.418c1.44,4.432-0.986,9.195-5.418,10.635l-61.855,20.099
	C418.271,225.879,417.392,226.013,416.528,226.013z"/>
<path d="M95.471,226.013c-0.864,0-1.743-0.134-2.61-0.415l-61.855-20.099c-4.432-1.44-6.859-6.201-5.418-10.635
	c1.44-4.431,6.197-6.861,10.635-5.418l61.855,20.099c4.432,1.44,6.859,6.201,5.418,10.635
	C102.336,223.745,99.028,226.013,95.471,226.013z"/>
<path d="M33.613,350.43c-3.558,0-6.866-2.267-8.024-5.833c-1.44-4.432,0.986-9.195,5.418-10.635l61.855-20.099
	c4.431-1.443,9.193,0.986,10.635,5.418c1.44,4.434-0.986,9.195-5.418,10.635l-61.856,20.099
	C35.356,350.296,34.477,350.43,33.613,350.43z"/>
<path d="M118.551,467.344c-1.719,0-3.456-0.524-4.953-1.613c-3.771-2.74-4.607-8.018-1.868-11.788l38.229-52.618
	c2.74-3.771,8.016-4.607,11.788-1.868c3.771,2.74,4.607,8.018,1.868,11.788l-38.229,52.618
	C123.734,466.136,121.16,467.344,118.551,467.344z"/>
</svg>